<?xml version="1.0" encoding="utf-8"?>
<!-- Generator: Adobe Illustrator 27.5.0, SVG Export Plug-In . SVG Version: 6.00 Build 0)  -->
<svg version="1.1" id="Layer_1" xmlns="http://www.w3.org/2000/svg" xmlns:xlink="http://www.w3.org/1999/xlink" x="0px" y="0px"
	 viewBox="0 0 32 32" style="enable-background:new 0 0 32 32;" xml:space="preserve">
<style type="text/css">
	.st0{enable-background:new    ;}
	.st1{fill:#FFFFFF;}
</style>
<g class="st0">
	<path class="st1" d="M3.5,20.2v-1.1l4.4-5.9H3.5v-1.5h6.7v1.1l-4.4,5.9h4.4v1.5H3.5z"/>
	<path class="st1" d="M18.9,14.2c0.2,0.5,0.3,1.2,0.3,1.8c0,0.7-0.1,1.3-0.3,1.8c-0.2,0.5-0.5,1-0.9,1.4s-0.8,0.6-1.3,0.8
		c-0.5,0.2-1,0.3-1.6,0.3S14,20.2,13.5,20s-0.9-0.5-1.3-0.8c-0.4-0.4-0.7-0.8-0.9-1.4C11.1,17.3,11,16.7,11,16
		c0-0.7,0.1-1.3,0.3-1.8s0.5-1,0.9-1.4s0.8-0.6,1.3-0.8s1-0.3,1.6-0.3s1.1,0.1,1.6,0.3s0.9,0.5,1.3,0.8S18.6,13.6,18.9,14.2z
		 M16.7,18c0.4-0.5,0.6-1.2,0.6-2c0-0.9-0.2-1.6-0.6-2c-0.4-0.5-0.9-0.7-1.6-0.7c-0.7,0-1.2,0.2-1.6,0.7c-0.4,0.5-0.6,1.2-0.6,2
		c0,0.9,0.2,1.6,0.6,2c0.4,0.5,0.9,0.7,1.6,0.7C15.8,18.8,16.3,18.5,16.7,18z"/>
	<path class="st1" d="M28.2,14.2c0.2,0.5,0.3,1.2,0.3,1.8c0,0.7-0.1,1.3-0.3,1.8c-0.2,0.5-0.5,1-0.9,1.4S26.5,19.8,26,20
		c-0.5,0.2-1,0.3-1.6,0.3s-1.1-0.1-1.6-0.3s-0.9-0.5-1.3-0.8c-0.4-0.4-0.7-0.8-0.9-1.4c-0.2-0.5-0.3-1.2-0.3-1.8
		c0-0.7,0.1-1.3,0.3-1.8c0.2-0.5,0.5-1,0.9-1.4s0.8-0.6,1.3-0.8s1-0.3,1.6-0.3s1.1,0.1,1.6,0.3s0.9,0.5,1.3,0.8
		C27.7,13.2,28,13.6,28.2,14.2z M26.1,18c0.4-0.5,0.6-1.2,0.6-2c0-0.9-0.2-1.6-0.6-2c-0.4-0.5-0.9-0.7-1.6-0.7s-1.2,0.2-1.6,0.7
		s-0.6,1.2-0.6,2c0,0.9,0.2,1.6,0.6,2c0.4,0.5,0.9,0.7,1.6,0.7S25.7,18.5,26.1,18z"/>
</g>
</svg>
